<?xml version="1.0" standalone="no"?>
<!DOCTYPE svg PUBLIC "-//W3C//DTD SVG 20010904//EN"
 "http://www.w3.org/TR/2001/REC-SVG-20010904/DTD/svg10.dtd">
<svg version="1.0" xmlns="http://www.w3.org/2000/svg"
 width="200.000000pt" height="80.000000pt" viewBox="0 0 200.000000 80.000000"
 preserveAspectRatio="xMidYMid meet">

<g transform="translate(0.000000,80.000000) scale(0.100000,-0.100000)"
fill="#000000" stroke="none">
<path d="M0 400 l0 -400 204 0 203 0 7 39 c12 78 100 108 155 53 l28 -27 17
22 c9 13 28 23 41 23 24 0 25 -3 25 -55 l0 -55 660 0 660 0 0 400 0 400 -719
0 c-469 0 -722 -3 -726 -10 -3 -5 3 -10 14 -10 24 0 36 -16 20 -26 -8 -4 -9
-3 -5 4 5 8 -2 12 -18 12 -14 0 -26 5 -26 12 0 6 -11 1 -25 -12 -31 -29 -31
-37 -4 -45 16 -5 18 -9 9 -15 -18 -11 -40 -1 -50 24 -7 16 -9 17 -9 4 -1 -9
-10 -20 -21 -23 -25 -8 -26 -20 -2 -35 15 -10 15 -11 -3 -7 -11 3 -29 8 -39
13 -14 5 -17 4 -12 -4 5 -8 1 -10 -11 -5 -14 6 -12 9 15 20 20 8 30 18 26 27
-3 9 9 22 35 37 23 12 41 26 41 31 0 12 -278 10 -300 -2 -13 -7 -21 -7 -25 0
-3 5 -42 10 -86 10 l-79 0 0 -400z m346 306 c18 5 18 5 0 -10 -25 -20 -40 -20
-56 -1 -18 22 -2 40 20 20 10 -9 25 -13 36 -9z m144 -10 c0 -2 -7 -7 -16 -10
-8 -3 -12 -2 -9 4 6 10 25 14 25 6z m-280 -32 c0 -17 2 -17 45 0 42 18 46 12
8 -7 -38 -20 -83 -32 -63 -18 13 9 13 11 -2 11 -18 0 -24 20 -12 33 10 9 24
-2 24 -19z m180 -19 c0 -1 -10 0 -23 2 -13 3 -24 11 -24 18 0 10 5 10 24 -2
13 -8 23 -16 23 -18z m-65 -5 c10 -11 16 -20 13 -20 -3 0 -13 9 -23 20 -10 11
-16 20 -13 20 3 0 13 -9 23 -20z m-30 -21 c4 -21 3 -22 -11 -7 -9 9 -13 21 -9
28 4 6 9 9 11 7 3 -2 7 -15 9 -28z m-40 12 c-3 -5 -1 -12 5 -16 5 -3 10 -12
10 -18 0 -7 -7 -3 -15 7 -13 17 -12 36 1 36 3 0 3 -4 -1 -9z m203 -44 c37 -55
78 -127 59 -104 -14 17 -22 14 -148 -52 -74 -39 -135 -75 -137 -80 -2 -6 26
-68 63 -137 53 -100 71 -125 85 -121 27 7 260 167 260 179 0 6 -9 27 -21 47
l-21 36 21 -25 c20 -24 37 -67 30 -74 -27 -25 -268 -186 -279 -186 -21 0 -234
426 -218 437 30 20 264 130 270 126 4 -2 20 -23 36 -46z m-303 33 c-3 -5 -14
-10 -23 -9 -14 0 -13 2 3 9 27 11 27 11 20 0z m57 -32 c-15 -15 -26 -4 -18 18
5 13 9 15 18 6 9 -9 9 -15 0 -24z m-43 -33 c0 -5 -4 -3 -9 5 -5 8 -9 22 -9 30
0 16 17 -16 18 -35z m-39 4 c0 -6 -4 -7 -10 -4 -5 3 -10 11 -10 16 0 6 5 7 10
4 6 -3 10 -11 10 -16z m-38 -14 c3 -14 2 -25 -2 -25 -4 0 -10 11 -12 25 -3 14
-2 25 2 25 4 0 10 -11 12 -25z m493 -159 l17 -31 -20 24 c-11 14 -27 38 -37
55 l-17 31 20 -24 c11 -14 27 -38 37 -55z"/>
<path d="M404 553 c-1 -13 2 -23 6 -23 5 0 15 -3 24 -6 12 -5 16 0 16 19 0 35
-44 45 -46 10z"/>
<path d="M177 506 c-16 -12 -16 -14 -2 -20 9 -3 15 -11 13 -18 -2 -7 2 -14 7
-15 6 -1 8 6 7 15 -3 12 -1 13 10 5 9 -8 19 -9 28 -3 12 8 10 10 -7 10 -21 0
-28 10 -24 33 2 11 -12 8 -32 -7z"/>
<path d="M345 503 c4 -10 7 -26 7 -35 -1 -22 7 -22 36 0 l23 18 -37 17 c-35
17 -36 17 -29 0z m30 -13 c3 -5 1 -10 -4 -10 -6 0 -11 5 -11 10 0 6 2 10 4 10
3 0 8 -4 11 -10z"/>
<path d="M223 443 c-7 -2 -13 -12 -13 -20 0 -10 6 -13 16 -9 9 3 18 6 20 6 2
0 4 7 4 15 0 15 -6 17 -27 8z"/>
<path d="M248 416 c-18 -13 -25 -36 -10 -36 17 1 45 31 36 39 -5 6 -16 5 -26
-3z"/>
<path d="M457 72 c-10 -10 -17 -31 -17 -45 0 -23 4 -27 29 -27 34 0 49 15 24
24 -12 5 -13 10 -5 18 17 17 45 1 39 -22 -4 -17 0 -20 24 -20 24 0 29 4 29 23
0 54 -87 89 -123 49z"/>
</g>
</svg>
